<svg xmlns="http://www.w3.org/2000/svg" width="37" height="36" fill="none" viewBox="0 0 37 36">
<!-- SVG created with Arrow, by QuiverAI (https://quiver.ai) -->
  <path d="m30.08 11.77h-1.48c-2.54 0-4.36-2.16-4.36-4.46v-1.34c0-3.29-2.67-5.97-5.95-5.97h-0.13c-3.26 0-5.85 2.74-5.85 5.91v1.3c0 2.54-2 4.56-4.54 4.56h-1.48c-3.4 0-6.12 2.79-6.12 6.23v0.13c0 3.28 2.56 6.24 6.14 6.24h1.44c2.51 0 4.54 2.13 4.54 4.58v0.98c0 3.25 2.67 5.86 5.87 5.86h0.08c3.2 0 6-2.65 6-6.03v-0.85c0-2.54 2.07-4.5 4.48-4.5h1.4c3.53 0 6.24-2.92 6.24-6.32v-0.18c0-3.36-2.77-6.14-6.28-6.14zm-4.36 9.07c-2.1 0.89-3.65 2.3-4.64 4.58-0.61 1.38-1.72 1.87-2.87 1.87-1.25 0-2.35-0.93-2.82-2.02-0.93-2.13-2.41-3.45-4.69-4.41-1.17-0.51-1.83-1.48-1.83-2.77 0-1.3 0.86-2.33 1.97-2.77 2.17-0.85 3.52-2.31 4.48-4.44 0.72-1.19 1.66-1.94 2.92-1.94 1.38 0 2.39 0.92 2.92 2.15 0.86 1.89 2.2 3.22 4.52 4.12 1.3 0.52 1.8 1.64 1.8 2.81-0.07 1.15-0.83 2.36-1.76 2.82z" fill="#fff"/>
</svg>